<svg clip-rule="evenodd" fill-rule="evenodd" stroke-linejoin="round" stroke-miterlimit="2" viewBox="0 0 871 871" xmlns="http://www.w3.org/2000/svg"><path d="m770.922 228.033-186.531-221.491c-4.228-5.016-10.746-7.228-17.109-6.358h-398.175c-40.841 0-74.103 33.11-74.103 73.832v722.986c0 40.688 33.241 73.831 74.103 73.831h534.075c40.862 0 74.069-33.143 74.069-73.831v-553.503c.034-.489.315-.907.315-1.413-.021-5.626-2.571-10.659-6.644-14.053z" fill="#333f4c" fill-rule="nonzero"/><path d="m401.517 206.788c-1.863-3.355-5.596-5.596-9.7-5.596h-57.088l34.325-104.85c1.121-3.359.375-7.088-1.491-10.071-1.867-2.988-5.596-4.479-8.955-4.479h-90.295c-4.85 0-8.955 2.983-10.45 7.837l-61.567 186.563c-1.117 3.358-.371 7.087 1.496 10.075 2.237 2.983 5.596 4.475 8.954 4.475h67.162l-8.583 131.341c-.371 5.225 2.988 10.075 8.208 11.567 1.121.375 2.242.375 2.988.375 4.104 0 7.833-2.238 9.7-5.971l115.671-210.446c1.866-3.358 1.866-7.462-.375-10.821z" fill="#fec136" fill-rule="nonzero"/><circle cx="539.242" cy="639.658" fill="#fff" r="83.171"/><g fill="#ff282d" fill-rule="nonzero"><path d="m566.304 607.733-5.087-5.087-25.834 22.512c-1.304-.466-2.7-.733-4.158-.733-6.971 0-12.612 5.808-12.612 12.967 0 7.166 5.641 12.975 12.612 12.975 6.967 0 12.625-5.809 12.625-12.975 0-1.359-.208-2.667-.583-3.9z"/><path d="m668.688 708.233-.042-208.012h-66.846v19.508c-13.767-8.262-29.104-14.167-45.45-17.196h.379v-23.083h8.154v-16.975h-67.304v16.975h8.154v23.083h.463c-63.933 11.771-112.383 67.755-112.383 135.092 0 75.888 61.52 137.404 137.404 137.404 25.9 0 50.121-7.175 70.8-19.633l12.041 19.658h70.609v-66.821zm-133.467-.15v-7.858h-8.008v7.833c-35.875-2.087-64.571-30.912-66.442-66.846h7.958v-8.012h-7.921c2.13-35.683 30.709-64.233 66.405-66.313v7.875h8.008v-7.899c35.187 1.879 63.533 29.483 66.596 64.345v2.296h-8.025v8.008h8.029v2.192c-3.046 34.879-31.4 62.496-66.6 64.379z"/></g></svg>
